<svg id="_128px" data-name="128px" xmlns="http://www.w3.org/2000/svg" width="128" height="128" viewBox="0 0 128 128">
  <rect id="bg_" data-name="bg/" width="128" height="128" fill="none"/>
  <g id="矩形_1" data-name="矩形 1" fill="#fff" stroke="#002fa7" stroke-width="1">
    <rect width="128" height="128" rx="40" stroke="none"/>
    <rect x="0.5" y="0.5" width="127" height="127" rx="39.5" fill="none"/>
  </g>
  <path id="路径_111" data-name="路径 111" d="M-23683.156-12863.741a2.991,2.991,0,0,1-1.324-.309,3,3,0,0,1-1.676-2.691v-17.294h-12.59a3,3,0,0,1-2.9-2.223,3,3,0,0,1,1.4-3.374l59.941-34.673a3,3,0,0,1,1.213-.416h0a2.965,2.965,0,0,1,.348-.021h.012a2.988,2.988,0,0,1,1.975.752,2.981,2.981,0,0,1,.225.22h0a3,3,0,0,1,.766,1.651,2.9,2.9,0,0,1,.012.638,2.862,2.862,0,0,1-.1.557l-13.516,51.706a3,3,0,0,1-2.023,2.109,2.991,2.991,0,0,1-2.859-.614l-19.41-17.059a2.992,2.992,0,0,1-1.016-2.118,3,3,0,0,1,.82-2.2l18.652-19.65-32.357,18.716h4.412a3,3,0,0,1,3,3v14.2l6.639-5.108a3,3,0,0,1,4.207.549,3,3,0,0,1-.547,4.207l-11.469,8.823A3,3,0,0,1-23683.156-12863.741Zm15.791-23.489,13.416,11.79,9.352-35.778Z" transform="translate(23732.746 12958.241)" fill="#002fa7"/>
</svg>
