<svg width="256" height="256" viewBox="0 0 256 256" fill="none" xmlns="http://www.w3.org/2000/svg">
<circle cx="117" cy="125" r="50" fill="url(#paint0_linear_1_2)"/>
<rect x="87" y="95" width="10" height="50" rx="5" fill="white"/>
<path d="M139 156C139 142.193 150.193 131 164 131V131C177.807 131 189 142.193 189 156V156C189 169.807 177.807 181 164 181V181C150.193 181 139 169.807 139 156V156Z" fill="url(#paint1_linear_1_2)"/>
<rect x="87" y="105" width="10" height="40" rx="5" transform="rotate(-90 87 105)" fill="white"/>
<rect x="87" y="125" width="10" height="35" rx="5" transform="rotate(-90 87 125)" fill="white"/>
<rect x="129" y="116" width="10" height="30" rx="5" fill="white"/>
<rect x="152.042" y="141.621" width="8" height="25" rx="4" transform="rotate(-27.0273 152.042 141.621)" fill="#E3E3E3"/>
<rect x="170.612" y="138" width="8" height="40" rx="4" transform="rotate(22.9732 170.612 138)" fill="#E3E3E3"/>
<circle cx="134" cy="108" r="5" fill="white"/>
<defs>
<linearGradient id="paint0_linear_1_2" x1="59.5" y1="173" x2="171" y2="90.5" gradientUnits="userSpaceOnUse">
<stop offset="0.203125" stop-color="#2FDFBF"/>
<stop offset="0.384629" stop-color="#2FDFBF"/>
<stop offset="1" stop-color="#0AFB05" stop-opacity="0.29"/>
</linearGradient>
<linearGradient id="paint1_linear_1_2" x1="142" y1="133" x2="197" y2="184.5" gradientUnits="userSpaceOnUse">
<stop stop-color="#515151"/>
<stop offset="1" stop-color="#D5D5D5"/>
</linearGradient>
</defs>
</svg>
