<svg xmlns="http://www.w3.org/2000/svg" width="1163" height="455" viewBox="0 0 1163 455">
  <g id="组_10" data-name="组 10" transform="translate(-2949 -168)">
    <g id="组_5" data-name="组 5" transform="translate(3244 168)">
      <rect id="矩形_9" data-name="矩形 9" width="868" height="455" fill="none"/>
      <path id="logo" d="M323.229-354.056H294.452l21.734-59.631L275.071-520.8h25.962l28.851,69.533,25.666-70.426h25.4L330.395-374.869l-.867,2.528-6.3,18.291Zm472.2-63.1H740.309l13.712-21.659H794.54v-.012a8.486,8.486,0,0,0,8.023-8.633,8.487,8.487,0,0,0-8.023-8.633H767.192a29.526,29.526,0,0,1-19.72-9.247,29.54,29.54,0,0,1-8.085-20.348,29.512,29.512,0,0,1,8.3-20.582,29.488,29.488,0,0,1,20.181-9.049v-.023H823l-14.7,23.222H767.565a7.75,7.75,0,0,0-7.371,7.832,7.741,7.741,0,0,0,7.371,7.828v.014H793.99a29.471,29.471,0,0,1,20.535,8.89A29.493,29.493,0,0,1,823-446.8a29.544,29.544,0,0,1-8.007,20.265,29.539,29.539,0,0,1-19.557,9.315v.07Zm-113.422,0h0a44.758,44.758,0,0,1-29.749-11.4,46.4,46.4,0,0,1-15.092-28.306c-.018-1.386,0-6.17,0-9.028V-467.7c0-2.858-.016-7.64,0-9.028a46.405,46.405,0,0,1,15.094-28.3,44.759,44.759,0,0,1,29.749-11.4,44.757,44.757,0,0,1,29.749,11.4,46.412,46.412,0,0,1,15.092,28.306c0,.265,0,.653,0,1.126v19.444H661.6a21.221,21.221,0,0,0,19.477,15.374v-.014h46.345l-13.646,23.527h-31.76v.109Zm0-58.445h20.863a21.27,21.27,0,0,0-20.863-17.227A21.268,21.268,0,0,0,661.147-475.6h20.865ZM581.876-417.158a46.244,46.244,0,0,1-17.183-3.294,45.672,45.672,0,0,1-14.241-8.975,42.212,42.212,0,0,1-9.71-13.292,38.545,38.545,0,0,1-3.588-16.247V-493.1H517.711V-441H517.7a71.525,71.525,0,0,1-19.263,15.293,68.656,68.656,0,0,1-33.22,8.444,69.09,69.09,0,0,1-28-5.884,71.617,71.617,0,0,1-22.868-16.043,74.86,74.86,0,0,1-15.417-23.8,77,77,0,0,1-5.658-29.139,77,77,0,0,1,5.654-29.139,74.845,74.845,0,0,1,15.417-23.8A71.609,71.609,0,0,1,437.209-561.1a69.093,69.093,0,0,1,28-5.882c17.5,0,52.751-.014,52.942-.014L503.6-541.709H465.213c-25.732,0-46.665,22.244-46.665,49.582s20.933,49.582,46.665,49.582a43.43,43.43,0,0,0,25.277-7.988V-493.1H455.712l14-23.333h88.831v55.547c0,13.331,8.944,21.612,23.333,21.612s23.333-8.281,23.333-21.612v-31.826h-.167v-23.722H626.6v57.466c-.047,12.8-4.667,23.539-13.337,31.064a47.637,47.637,0,0,1-31.384,10.747Zm-322.769-4H231.886V-541.707H150.221v120.552H123V-565.04H259.107Zm-64.8-56.387H150.221V-502.82H209.1l-14.791,25.277Z" transform="translate(-39 722)" fill="#002fa7"/>
    </g>
    <g id="组_16" data-name="组 16" transform="translate(2948.552 248)">
      <rect id="矩形_7" data-name="矩形 7" width="295" height="295" transform="translate(0.448 0)" fill="none"/>
      <g id="组_12" data-name="组 12" transform="translate(19.68 147.723) rotate(-45)">
        <path id="矩形_14" data-name="矩形 14" d="M18.466,0H55.4A18.466,18.466,0,0,1,73.862,18.466v0A18.466,18.466,0,0,1,55.4,36.931H0a0,0,0,0,1,0,0V18.466A18.466,18.466,0,0,1,18.466,0Z" transform="translate(147.724 107.221) rotate(90)" fill="#002fa7"/>
        <path id="矩形_15" data-name="矩形 15" d="M16.057,0H73.862a0,0,0,0,1,0,0V57.805A16.057,16.057,0,0,1,57.805,73.862h0A57.805,57.805,0,0,1,0,16.057v0A16.057,16.057,0,0,1,16.057,0Z" transform="translate(0 107.221)" fill="#002fa7"/>
        <path id="矩形_6" data-name="矩形 6" d="M25.888,0A25.852,25.852,0,1,1,0,25.888,25.764,25.764,0,0,1,25.888,0Z" transform="translate(181.233 0) rotate(90)" fill="#002fa7"/>
        <path id="联合_1_-_轮廓" data-name="联合 1 - 轮廓" d="M110.794,73.862H73.862V36.931H14.772A14.773,14.773,0,0,1,0,22.158V14.772A14.772,14.772,0,0,1,14.772,0H96.021a14.772,14.772,0,0,1,14.772,14.772Z" transform="translate(0 33.359)" fill="#002fa7"/>
      </g>
    </g>
  </g>
</svg>
