<svg id="logo" xmlns="http://www.w3.org/2000/svg" width="91" height="34" viewBox="0 0 91 34">
  <text id="Swiffe" transform="translate(42 24)" font-size="16" font-family="HarmonyOS_Sans_SC_Black, HarmonyOS Sans SC"><tspan x="0" y="0">Swiffe</tspan></text>
  <g id="_128px" data-name="128px">
    <rect id="bg_" data-name="bg/" width="34" height="34" fill="none"/>
    <g id="多边形_15" data-name="多边形 15" transform="translate(29.902 29.446) rotate(180)" fill="none">
      <path d="M8.136,2.981a2,2,0,0,1,3.46,0L17.989,14a2,2,0,0,1-1.73,3H3.473a2,2,0,0,1-1.73-3Z" stroke="none"/>
      <path d="M 9.866072654724121 3.984466552734375 C 9.866068840026855 3.984466552734375 9.866065979003906 3.984466552734375 9.866063117980957 3.984466552734375 L 3.473123550415039 14.99999618530273 L 16.25901222229004 14.99999618530273 C 16.25901412963867 14.99999618530273 16.2590160369873 14.99999618530273 16.2590217590332 15.00000667572021 L 9.866072654724121 3.984466552734375 M 9.866071701049805 1.984468460083008 C 10.53826999664307 1.984468460083008 11.21046733856201 2.316501617431641 11.59586238861084 2.98056697845459 L 17.98881340026855 13.99610710144043 C 18.76261329650879 15.32942676544189 17.80062294006348 16.99999618530273 16.25901222229004 16.99999618530273 L 3.473123550415039 16.99999618530273 C 1.931522369384766 16.99999618530273 0.9695320129394531 15.32942676544189 1.743331909179688 13.99610710144043 L 8.136272430419922 2.98056697845459 C 8.521672248840332 2.316501617431641 9.193872451782227 1.984468460083008 9.866071701049805 1.984468460083008 Z" stroke="none" fill="#001959"/>
    </g>
    <path id="多边形_14" data-name="多边形 14" d="M7.379,2.967a2,2,0,0,1,3.456,0l5.628,9.661a2,2,0,0,1-1.728,3.007H3.48a2,2,0,0,1-1.728-3.007Z" transform="translate(4.098 4.554)" fill="#001959"/>
  </g>
</svg>
