<svg id="_128px" data-name="128px" xmlns="http://www.w3.org/2000/svg" width="128" height="128" viewBox="0 0 128 128">
  <rect id="bg_" data-name="bg/" width="128" height="128" fill="none"/>
  <g id="多边形_15" data-name="多边形 15" transform="translate(112.571 110.857) rotate(180)" fill="none">
    <path d="M31.089,10.432a7,7,0,0,1,12.109,0L68.184,53.486A7,7,0,0,1,62.13,64H12.156A7,7,0,0,1,6.1,53.486Z" stroke="none"/>
    <path d="M 37.14284515380859 12.94563674926758 L 36.2779541015625 13.44367980957031 L 11.29106140136719 56.49805068969727 C 11.09850692749023 56.829833984375 11.09793853759766 57.16660308837891 11.28936767578125 57.4990348815918 C 11.48080062866211 57.83145141601562 11.77235412597656 58.00000381469727 12.15595245361328 58.00000381469727 L 62.12976837158203 58.00000381469727 C 62.51336669921875 58.00000381469727 62.80492401123047 57.83145141601562 62.99635314941406 57.49901962280273 C 63.18778228759766 57.16660308837891 63.18721389770508 56.82981872558594 62.99465942382812 56.49805068969727 L 38.00775146484375 13.44367980957031 C 37.81595230102539 13.11320495605469 37.52495193481445 12.94563674926758 37.14284515380859 12.94563674926758 M 37.14285278320312 6.945632934570312 C 39.49554824829102 6.945632934570312 41.84824371337891 8.107749938964844 43.19713592529297 10.43198776245117 L 68.18404388427734 53.48635864257812 C 70.89236450195312 58.15300369262695 67.52536773681641 64.00000762939453 62.12976837158203 64.00000762939453 L 12.15595245361328 64.00000762939453 C 6.760337829589844 64.00000762939453 3.393356323242188 58.15300369262695 6.101676940917969 53.48635864257812 L 31.08856964111328 10.43198776245117 C 32.43746185302734 8.107749938964844 34.79015731811523 6.945632934570312 37.14285278320312 6.945632934570312 Z" stroke="none" fill="#001959"/>
  </g>
  <path id="多边形_14" data-name="多边形 14" d="M29.1,8.9a6,6,0,0,1,10.369,0L63.317,49.837a6,6,0,0,1-5.184,9.02H10.439a6,6,0,0,1-5.184-9.02Z" transform="translate(15.429 17.143)" fill="#001959"/>
</svg>
