<svg xmlns="http://www.w3.org/2000/svg" xmlns:xlink="http://www.w3.org/1999/xlink" width="400" height="400" viewBox="0 0 400 400">
  <defs>
    <clipPath id="clip-usual_circle">
      <rect width="400" height="400"/>
    </clipPath>
  </defs>
  <g id="usual_circle" data-name="usual – circle" clip-path="url(#clip-usual_circle)">
    <g id="组_13" data-name="组 13">
      <rect id="矩形_7" data-name="矩形 7" width="400" height="400" fill="none"/>
      <g id="组_12" data-name="组 12" transform="translate(-199.587 123.82) rotate(-45)">
        <path id="矩形_14" data-name="矩形 14" d="M20,0H80a20,20,0,0,1,20,20V30A20,20,0,0,1,80,50H0a0,0,0,0,1,0,0V20A20,20,0,0,1,20,0Z" transform="translate(306 359) rotate(90)" fill="#002fa7"/>
        <path id="矩形_15" data-name="矩形 15" d="M20,0h80a0,0,0,0,1,0,0V80a20,20,0,0,1-20,20H72A72,72,0,0,1,0,28V20A20,20,0,0,1,20,0Z" transform="translate(106 359)" fill="#002fa7"/>
        <path id="矩形_6" data-name="矩形 6" d="M35.049,0A35,35,0,1,1,0,35.049,34.881,34.881,0,0,1,35.049,0Z" transform="translate(351.366 213.836) rotate(90)" fill="#002fa7"/>
        <path id="联合_1_-_轮廓" data-name="联合 1 - 轮廓" d="M-749.007,235.567h-50v-50h-80a20,20,0,0,1-20-20v-10a20,20,0,0,1,20-20h110a20,20,0,0,1,20,20Z" transform="translate(1005.007 123.433)" fill="#002fa7"/>
      </g>
    </g>
  </g>
</svg>
